<svg width="268" height="36" viewBox="0 0 268 36" fill="none" xmlns="http://www.w3.org/2000/svg">
<path d="M41.6855 7.44629C37.1413 7.44629 33.0803 9.77253 33.0803 14.0704C33.0803 18.9993 40.2826 19.3397 40.2826 21.8159C40.2826 22.8585 39.0728 23.7918 37.0066 23.7918C34.0742 23.7918 31.8825 22.4877 31.8825 22.4877L30.9447 26.8247C30.9447 26.8247 33.4695 27.9263 36.8215 27.9263C41.7898 27.9263 45.6993 25.4858 45.6993 21.1144C45.6993 15.9062 38.467 15.5759 38.467 13.2776C38.467 12.4609 39.4601 11.566 41.5205 11.566C43.8452 11.566 45.7418 12.5144 45.7418 12.5144L46.6596 8.32556C46.6596 8.32556 44.5959 7.44629 41.6855 7.44629ZM0.110034 7.76243L0 8.39471C0 8.39471 1.91177 8.74027 3.63364 9.42958C5.85068 10.22 6.00861 10.6802 6.38199 12.1094L10.4508 27.6003H15.905L24.3076 7.76243H18.8659L13.4667 21.2503L11.2635 9.81735C11.0615 8.50886 10.038 7.76243 8.78524 7.76243H0.110034ZM26.4958 7.76243L22.2269 27.6003H27.4161L31.6699 7.76243H26.4958ZM55.4373 7.76243C54.186 7.76243 53.5231 8.42406 53.0366 9.58024L45.4342 27.6003H50.8759L51.9287 24.5969H58.5583L59.1985 27.6003H64L59.8112 7.76243H55.4373ZM56.145 13.122L57.758 20.5661H53.4367L56.145 13.122Z" fill="#8B8D92"/>
<g clip-path="url(#clip0_5228_542)">
<path d="M88.3477 35.7735V33.4193C88.3477 32.5188 87.7992 31.9291 86.8575 31.9291C86.3867 31.9291 85.8747 32.0845 85.5227 32.5965C85.2484 32.1668 84.8553 31.9291 84.2656 31.9291C83.8725 31.9291 83.4794 32.048 83.1685 32.4777V32.0068H82.3457V35.7735H83.1685V33.6936C83.1685 33.0262 83.5205 32.7108 84.0691 32.7108C84.6176 32.7108 84.8919 33.0628 84.8919 33.6936V35.7735H85.7147V33.6936C85.7147 33.0262 86.1078 32.7108 86.6152 32.7108C87.1638 32.7108 87.438 33.0628 87.438 33.6936V35.7735H88.3477ZM100.553 32.0068H99.2181V30.8686H98.3953V32.0068H97.6502V32.7519H98.3953V34.4799C98.3953 35.3438 98.7473 35.8512 99.6889 35.8512C100.041 35.8512 100.434 35.7324 100.708 35.577L100.471 34.8684C100.233 35.0238 99.9586 35.065 99.7621 35.065C99.3689 35.065 99.2135 34.8273 99.2135 34.4387V32.7519H100.548V32.0068H100.553ZM107.538 31.9245C107.067 31.9245 106.751 32.1622 106.555 32.4731V32.0023H105.732V35.7689H106.555V33.6479C106.555 33.0216 106.829 32.6651 107.341 32.6651C107.497 32.6651 107.693 32.7062 107.853 32.7428L108.091 31.9565C107.926 31.9245 107.693 31.9245 107.538 31.9245ZM96.9828 32.3177C96.5896 32.0434 96.0411 31.9245 95.4514 31.9245C94.5097 31.9245 93.8835 32.3954 93.8835 33.1405C93.8835 33.7667 94.3543 34.1233 95.1771 34.2376L95.5703 34.2787C95.9999 34.3564 96.2377 34.4753 96.2377 34.6718C96.2377 34.9461 95.9222 35.1427 95.3737 35.1427C94.8251 35.1427 94.3909 34.9461 94.1166 34.7496L93.7235 35.3758C94.1532 35.6912 94.7429 35.8467 95.3325 35.8467C96.4296 35.8467 97.0605 35.3347 97.0605 34.6307C97.0605 33.9633 96.5485 33.6113 95.7668 33.4925L95.3737 33.4513C95.0217 33.4102 94.7474 33.3325 94.7474 33.0993C94.7474 32.8251 95.0217 32.6697 95.456 32.6697C95.9268 32.6697 96.3976 32.8662 96.6353 32.9851L96.9828 32.3177ZM118.874 31.9245C118.404 31.9245 118.088 32.1622 117.892 32.4731V32.0023H117.069V35.7689H117.892V33.6479C117.892 33.0216 118.166 32.6651 118.678 32.6651C118.833 32.6651 119.03 32.7062 119.19 32.7428L119.427 31.9657C119.267 31.9245 119.034 31.9245 118.874 31.9245ZM108.361 33.8902C108.361 35.0284 109.147 35.8512 110.363 35.8512C110.911 35.8512 111.304 35.7324 111.698 35.4215L111.304 34.7541C110.989 34.9918 110.678 35.1061 110.322 35.1061C109.654 35.1061 109.183 34.6353 109.183 33.8902C109.183 33.1816 109.654 32.7108 110.322 32.6742C110.674 32.6742 110.989 32.7931 111.304 33.0262L111.698 32.3588C111.304 32.0434 110.911 31.9291 110.363 31.9291C109.147 31.9245 108.361 32.7519 108.361 33.8902ZM115.972 33.8902V32.0068H115.149V32.4777C114.875 32.1257 114.481 31.9291 113.969 31.9291C112.909 31.9291 112.086 32.7519 112.086 33.8902C112.086 35.0284 112.909 35.8512 113.969 35.8512C114.518 35.8512 114.911 35.6547 115.149 35.3027V35.7735H115.972V33.8902ZM112.95 33.8902C112.95 33.2228 113.38 32.6742 114.088 32.6742C114.756 32.6742 115.227 33.1862 115.227 33.8902C115.227 34.5576 114.756 35.1061 114.088 35.1061C113.384 35.065 112.95 34.553 112.95 33.8902ZM103.104 31.9245C102.007 31.9245 101.22 32.7108 101.22 33.8856C101.22 35.065 102.007 35.8467 103.145 35.8467C103.693 35.8467 104.242 35.6912 104.676 35.3347L104.283 34.745C103.968 34.9827 103.574 35.1381 103.186 35.1381C102.674 35.1381 102.167 34.9004 102.048 34.2376H104.832C104.832 34.1187 104.832 34.041 104.832 33.9222C104.868 32.7108 104.16 31.9245 103.104 31.9245ZM103.104 32.6331C103.616 32.6331 103.968 32.9485 104.045 33.5336H102.084C102.162 33.0262 102.514 32.6331 103.104 32.6331ZM123.546 33.8902V30.5166H122.723V32.4777C122.449 32.1257 122.056 31.9291 121.544 31.9291C120.483 31.9291 119.661 32.7519 119.661 33.8902C119.661 35.0284 120.483 35.8512 121.544 35.8512C122.092 35.8512 122.486 35.6547 122.723 35.3027V35.7735H123.546V33.8902ZM120.525 33.8902C120.525 33.2228 120.954 32.6742 121.663 32.6742C122.33 32.6742 122.801 33.1862 122.801 33.8902C122.801 34.5576 122.33 35.1061 121.663 35.1061C120.954 35.065 120.525 34.553 120.525 33.8902ZM92.9784 33.8902V32.0068H92.1555V32.4777C91.8813 32.1257 91.4881 31.9291 90.9762 31.9291C89.9156 31.9291 89.0928 32.7519 89.0928 33.8902C89.0928 35.0284 89.9156 35.8512 90.9762 35.8512C91.5247 35.8512 91.9178 35.6547 92.1555 35.3027V35.7735H92.9784V33.8902ZM89.9202 33.8902C89.9202 33.2228 90.3499 32.6742 91.0585 32.6742C91.7259 32.6742 92.1967 33.1862 92.1967 33.8902C92.1967 34.5576 91.7259 35.1061 91.0585 35.1061C90.3499 35.065 89.9202 34.553 89.9202 33.8902Z" fill="#A2A4A7"/>
<path d="M109.108 3.02148H96.7471V25.2285H109.108V3.02148Z" fill="#8B8D92"/>
<path d="M97.57 14.1251C97.57 9.61328 99.691 5.60889 102.946 3.02158C100.55 1.13823 97.5288 0 94.233 0C86.4253 0 80.1079 6.31743 80.1079 14.1251C80.1079 21.9327 86.4253 28.2502 94.233 28.2502C97.5288 28.2502 100.55 27.1119 102.946 25.2286C99.6865 22.6778 97.57 18.6369 97.57 14.1251Z" fill="#BABBBE"/>
<path d="M125.784 14.1251C125.784 21.9327 119.466 28.2502 111.659 28.2502C108.363 28.2502 105.341 27.1119 102.946 25.2286C106.242 22.6367 108.322 18.6369 108.322 14.1251C108.322 9.61328 106.201 5.60889 102.946 3.02158C105.337 1.13823 108.358 0 111.654 0C119.466 0 125.784 6.35857 125.784 14.1251Z" fill="#74767C"/>
</g>
<g clip-path="url(#clip1_5228_542)">
<path d="M171.328 25.2125H158.973V3.01416H171.328V25.2125Z" fill="#8B8D92"/>
<path d="M159.772 14.1138C159.772 9.61473 161.873 5.59527 165.162 3.0146C162.764 1.11905 159.727 0 156.438 0C148.65 0 142.324 6.32608 142.324 14.1138C142.324 21.9015 148.65 28.2276 156.438 28.2276C159.727 28.2276 162.764 27.1085 165.162 25.213C161.873 22.6323 159.772 18.6128 159.772 14.1138Z" fill="#BABBBE"/>
<path d="M188 14.1138C188 21.9015 181.674 28.2276 173.886 28.2276C170.598 28.2276 167.56 27.1085 165.162 25.213C168.451 22.6323 170.552 18.6128 170.552 14.1138C170.552 9.61473 168.451 5.59527 165.162 3.0146C167.56 1.11905 170.598 0 173.886 0C181.674 0 188 6.32608 188 14.1138Z" fill="#74767C"/>
<path d="M175.507 31.9047C175.667 31.9047 175.918 31.9275 176.078 31.996L175.827 32.7725C175.644 32.704 175.485 32.6812 175.325 32.6812C174.799 32.6812 174.525 33.0237 174.525 33.6404V35.7414H173.703V31.996H174.503V32.4528C174.731 32.1102 175.051 31.9047 175.507 31.9047ZM172.493 32.7268H171.168V34.4168C171.168 34.7822 171.305 35.0335 171.716 35.0335C171.922 35.0335 172.196 34.9649 172.447 34.8279L172.676 35.5359C172.424 35.7186 172.013 35.8328 171.648 35.8328C170.689 35.8328 170.346 35.3075 170.346 34.4397V32.7268H169.592V31.9732H170.346V30.8313H171.168V31.9732H172.493V32.7268ZM162.056 33.5262C162.147 32.9781 162.467 32.6126 163.061 32.6126C163.586 32.6126 163.929 32.9324 164.02 33.5262H162.056ZM164.865 33.8687C164.865 32.704 164.134 31.9047 163.084 31.9047C161.987 31.9047 161.211 32.704 161.211 33.8687C161.211 35.0563 162.01 35.8328 163.129 35.8328C163.7 35.8328 164.203 35.6958 164.659 35.3075L164.248 34.7137C163.929 34.9649 163.54 35.102 163.152 35.102C162.627 35.102 162.147 34.8508 162.033 34.1885H164.819C164.842 34.0743 164.865 33.9829 164.865 33.8687ZM168.451 32.9552C168.222 32.8182 167.765 32.6355 167.286 32.6355C166.829 32.6355 166.578 32.7954 166.578 33.0694C166.578 33.3206 166.852 33.3891 167.217 33.4348L167.606 33.4805C168.428 33.5947 168.907 33.9372 168.907 34.5995C168.907 35.3075 168.291 35.8328 167.194 35.8328C166.578 35.8328 166.007 35.6729 165.573 35.3532L165.961 34.7137C166.235 34.9193 166.646 35.102 167.217 35.102C167.765 35.102 168.062 34.9421 168.062 34.6452C168.062 34.4397 167.857 34.3255 167.4 34.257L167.012 34.2113C166.167 34.0971 165.71 33.7089 165.71 33.1151C165.71 32.3614 166.327 31.9047 167.263 31.9047C167.857 31.9047 168.405 32.0417 168.793 32.2929L168.451 32.9552ZM178.499 32.6583C178.339 32.6583 178.179 32.6812 178.042 32.7497C177.905 32.8182 177.768 32.8867 177.677 33.0009C177.586 33.1151 177.494 33.2293 177.426 33.3891C177.357 33.5262 177.334 33.7089 177.334 33.8687C177.334 34.0514 177.357 34.2113 177.426 34.3483C177.494 34.4854 177.563 34.6224 177.677 34.7366C177.791 34.8508 177.905 34.9193 178.042 34.9878C178.179 35.0563 178.339 35.0791 178.499 35.0791C178.659 35.0791 178.819 35.0563 178.956 34.9878C179.093 34.9193 179.23 34.8508 179.321 34.7366C179.435 34.6224 179.504 34.5082 179.573 34.3483C179.641 34.2113 179.664 34.0286 179.664 33.8687C179.664 33.686 179.641 33.5262 179.573 33.3891C179.504 33.2521 179.435 33.1151 179.321 33.0009C179.207 32.8867 179.093 32.8182 178.956 32.7497C178.819 32.704 178.659 32.6583 178.499 32.6583ZM178.499 31.9047C178.796 31.9047 179.07 31.9504 179.298 32.0645C179.55 32.1559 179.755 32.2929 179.938 32.4756C180.121 32.6583 180.258 32.8639 180.372 33.0922C180.463 33.3435 180.532 33.5947 180.532 33.8687C180.532 34.1428 180.486 34.4168 180.372 34.6452C180.28 34.8964 180.121 35.102 179.938 35.2618C179.755 35.4445 179.55 35.5816 179.298 35.6729C179.047 35.7643 178.773 35.8328 178.499 35.8328C178.202 35.8328 177.928 35.7871 177.7 35.6729C177.449 35.5816 177.243 35.4445 177.06 35.2618C176.878 35.0791 176.741 34.8736 176.626 34.6452C176.535 34.394 176.467 34.1428 176.467 33.8687C176.467 33.5947 176.512 33.3206 176.626 33.0922C176.718 32.841 176.878 32.6355 177.06 32.4756C177.243 32.2929 177.449 32.1559 177.7 32.0645C177.928 31.9504 178.202 31.9047 178.499 31.9047ZM157.306 33.8687C157.306 33.2064 157.74 32.6583 158.448 32.6583C159.133 32.6583 159.567 33.1836 159.567 33.8687C159.567 34.5539 159.11 35.0563 158.448 35.0563C157.74 35.0563 157.306 34.531 157.306 33.8687ZM160.343 33.8687V31.996H159.521V32.4528C159.27 32.1102 158.881 31.9047 158.333 31.9047C157.283 31.9047 156.461 32.7268 156.461 33.8687C156.461 35.0106 157.283 35.8328 158.333 35.8328C158.859 35.8328 159.247 35.6272 159.521 35.2847V35.7414H160.343V33.8687ZM155.753 35.7414V33.3891C155.753 32.4985 155.182 31.9047 154.268 31.9047C153.789 31.9047 153.286 32.0417 152.944 32.567C152.692 32.1559 152.281 31.9047 151.71 31.9047C151.322 31.9047 150.911 32.0189 150.614 32.4528V31.996H149.792V35.7414H150.614V33.6632C150.614 33.0237 150.98 32.6583 151.528 32.6583C152.076 32.6583 152.35 33.0009 152.35 33.6404V35.7186H153.172V33.6404C153.172 33.0009 153.56 32.6355 154.086 32.6355C154.634 32.6355 154.908 32.9781 154.908 33.6175V35.6958H155.753V35.7414Z" fill="#A2A4A7"/>
</g>
<g clip-path="url(#clip2_5228_542)">
<path fill-rule="evenodd" clip-rule="evenodd" d="M210.139 9.65624C210.699 9.65289 212.364 9.50293 213.07 11.8832C213.545 13.4865 214.301 16.1129 215.34 19.7622H215.763C216.876 15.9148 217.641 13.2885 218.058 11.8832C218.77 9.47814 220.552 9.65629 221.265 9.65629L226.762 9.65629V26.7586H221.159V16.6799H220.783L217.659 26.7586H213.443L210.32 16.6725H209.944V26.7586H204.34V9.65629L210.139 9.65624ZM234.809 9.65629V19.7425H235.256L239.056 11.4487C239.793 9.79819 241.365 9.65629 241.365 9.65629H246.788V26.7587H241.067V16.6725H240.62L236.895 24.9663C236.158 26.6093 234.511 26.7587 234.511 26.7587H229.088V9.65629H234.809ZM266.561 17.7835C265.763 20.0447 263.257 21.6641 260.483 21.6641H254.484V26.7587H249.044V17.7835H266.561Z" fill="#8B8D92"/>
<path fill-rule="evenodd" clip-rule="evenodd" d="M260.745 9.65625H248.758C249.044 13.4638 252.323 16.7234 255.717 16.7234H266.939C267.587 13.5588 265.357 9.65625 260.745 9.65625Z" fill="#5D6066"/>
</g>
<defs>
<clipPath id="clip0_5228_542">
<rect width="46" height="36" fill="white" transform="translate(80)"/>
</clipPath>
<clipPath id="clip1_5228_542">
<rect width="46" height="36" fill="white" transform="translate(142)"/>
</clipPath>
<clipPath id="clip2_5228_542">
<rect width="64" height="18" fill="white" transform="translate(204 9)"/>
</clipPath>
</defs>
</svg>
